#!OML:ASF X:\für Bonn\!DataBase\2005_08_12_Daniel\c3d\Daniel.ASF
:FULLY-SPECIFIED
:DEGREES
298
root 15.6618 1.30042 1.03709 -800.06 -85.6527 -393.778
lowerback 43.85 -3.29965 3.80422
upperback 18.3813 -5.56753 -2.91075
thorax -0.388969 -3.95852 -3.00072
lowerneck 9.28868 3.36013 -3.91998
upperneck 12.3679 3.90518 -2.02193
head 2.32513 1.51094 -0.027186
rclavicle 2.18663e-014 4.53229e-014
rhumerus -25.9132 14.8095 -96.8845
rradius 22.4429
rwrist -13.9453
rhand -36.6688 -358.02
rfingers 7.12502
rthumb -9.75512 -387.774
lclavicle 2.18663e-014 4.53229e-014
lhumerus -736.76 12.011 -644.88
lradius 42.2441
lwrist 6.48544
lhand -16.9488 359.469
lfingers 7.12502
lthumb 9.28471 389.244
rfemur 355.967 -9.72152 374.229
rtibia 63.2574
rfoot 22.0581 -4.03898
rtoes 12.1671
lfemur -21.4585 16.2424 -6.26058
ltibia 94.4401
lfoot 25.5486 0.0926774
ltoes 4.94199
299
root 15.6819 1.29812 1.0444 -799.694 -85.6744 -394.595
lowerback 43.5542 -3.32409 3.69965
upperback 18.262 -5.61544 -2.8898
thorax -0.44543 -3.97597 -2.91334
lowerneck 9.27727 3.40107 -3.75459
upperneck 12.4083 3.99206 -2.26452
head 2.34899 1.55395 -0.131362
rclavicle 2.22639e-014 1.18078e-013
rhumerus -25.0572 12.9265 -96.5113
rradius 21.5408
rwrist -11.5937
rhand -36.5655 -357.719
rfingers 7.12502
rthumb -9.65546 -387.477
lclavicle 2.22639e-014 1.18078e-013
lhumerus -736.578 12.6432 -644.992
lradius 40.9423
lwrist 3.84811
lhand -17.0855 358.917
lfingers 7.12502
lthumb 9.15287 388.698
rfemur 356.236 -9.2134 374.352
rtibia 63.5979
rfoot 21.9886 -4.05984
rtoes 12.9374
lfemur -20.769 15.2109 -6.34159
ltibia 93.5556
lfoot 25.4369 -0.0792966
ltoes 4.94877
300
root 15.6994 1.29622 1.05132 -799.411 -85.6585 -395.317
lowerback 43.2232 -3.3433 3.56729
upperback 18.1485 -5.66774 -2.87652
thorax -0.484771 -3.99616 -2.821
lowerneck 9.28448 3.46102 -3.65642
upperneck 12.4478 4.09261 -2.42988
head 2.36676 1.60255 -0.200543
rclavicle 1.90833e-014 -1.00585e-013
rhumerus -24.2538 11.2517 -96.1906
rradius 20.755
rwrist -9.61549
rhand -36.3643 -357.398
rfingers 7.12502
rthumb -9.46132 -387.165
lclavicle 1.90833e-014 -1.00585e-013
lhumerus -736.36 13.3428 -645.094
lradius 39.4674
lwrist 0.955303
lhand -17.3636 358.214
lfingers 7.12502
lthumb 8.88451 388.007
rfemur 356.473 -8.78508 374.401
rtibia 64.0002
rfoot 21.9257 -4.0266
rtoes 13.5457
lfemur -20.0985 14.1992 -6.48697
ltibia 92.7004
lfoot 25.3077 -0.192819
ltoes 5.03197
301
root 15.713 1.29405 1.05795 -798.972 -85.6687 -396.213
lowerback 42.8861 -3.36866 3.46694
upperback 18.0508 -5.71673 -2.86907
thorax -0.505113 -4.01305 -2.75393
lowerneck 9.33811 3.51118 -3.4768
upperneck 12.4401 4.18597 -2.63313
head 2.36393 1.65253 -0.296077
rclavicle -6.36111e-015 -4.05521e-014
rhumerus -23.536 9.76122 -95.9623
rradius 20.1393
rwrist -8.04
rhand -36.0522 -357.16
rfingers 7.12502
rthumb -9.16016 -386.941
lclavicle -6.36111e-015 -4.05521e-014
lhumerus -736.133 14.0673 -645.203
lradius 37.8741
lwrist -2.18247
lhand -17.8356 357.482
lfingers 7.12502
lthumb 8.42903 387.294
rfemur 356.69 -8.35029 374.499
rtibia 64.461
rfoot 21.808 -4.0028
rtoes 13.7307
lfemur -19.4063 13.207 -6.59103
ltibia 91.8847
lfoot 25.1385 -0.241627
ltoes 5.48092
302
root 15.723 1.29184 1.06496 -798.515 -85.6665 -397.134
lowerback 42.5725 -3.39441 3.33979
upperback 17.9354 -5.77493 -2.84258
thorax -0.546875 -4.0374 -2.64779
lowerneck 9.51672 3.58413 -3.30455
upperneck 12.3471 4.30092 -2.85469
head 2.31273 1.716 -0.398899
rclavicle 1.11319e-014 -1.04163e-013
rhumerus -22.9839 8.60514 -95.7802
rradius 19.7217
rwrist -6.99956
rhand -35.6816 -356.94
rfingers 7.12502
rthumb -8.80258 -386.737
lclavicle 1.11319e-014 -1.04163e-013
lhumerus -735.937 14.8984 -645.283
lradius 36.196
lwrist -5.50264
lhand -18.4984 356.709
lfingers 7.12502
lthumb 7.78935 386.546
rfemur 356.893 -7.95653 374.566
rtibia 64.9771
rfoot 21.6584 -3.97311
rtoes 13.8798
lfemur -18.7319 12.2587 -6.71873
ltibia 91.1172
lfoot 24.9049 -0.340435
ltoes 5.50661
303
root 15.7327 1.29049 1.07077 -798.341 -85.6748 -397.763
lowerback 42.2287 -3.40878 3.21859
upperback 17.8355 -5.81743 -2.82952
thorax -0.562719 -4.05234 -2.56755
lowerneck 9.5365 3.63859 -3.27529
upperneck 12.3393 4.38142 -2.91838
head 2.30947 1.75637 -0.424941
rclavicle -1.59028e-015 2.0117e-013
rhumerus -22.4932 7.51079 -95.6637
rradius 19.4555
rwrist -6.29179
rhand -35.2045 -356.872
rfingers 7.12502
rthumb -8.34212 -386.687
lclavicle -1.59028e-015 2.0117e-013
lhumerus -735.736 15.7735 -645.378
lradius 34.4494
lwrist -8.9278
lhand -19.3709 355.912
lfingers 7.12502
lthumb 6.94714 385.778
rfemur 357.068 -7.54505 374.65
rtibia 65.5289
rfoot 21.4881 -3.97855
rtoes 13.9585
lfemur -18.0522 11.3743 -6.82884
ltibia 90.3866
lfoot 24.6257 -0.449288
ltoes 5.31958
304
root 15.7424 1.28917 1.07598 -797.976 -85.6781 -398.589
lowerback 41.92 -3.43571 3.09584
upperback 17.7074 -5.87333 -2.81376
thorax -0.618315 -4.07339 -2.47495
lowerneck 9.55094 3.69966 -3.31562
upperneck 12.3579 4.46183 -2.93179
head 2.31309 1.79335 -0.423463
rclavicle 5.96354e-014 5.24792e-014
rhumerus -22.199 6.7833 -95.6413
rradius 19.4476
rwrist -6.25376
rhand -34.648 -356.829
rfingers 7.12502
rthumb -7.80503 -386.665
lclavicle 5.96354e-014 5.24792e-014
lhumerus -735.632 16.7754 -645.508
lradius 32.7092
lwrist -12.5227
lhand -20.3463 355.061
lfingers 7.12502
lthumb 6.00545 384.956
rfemur 357.232 -7.16799 374.732
rtibia 66.1126
rfoot 21.285 -3.98052
rtoes 13.8498
lfemur -17.3918 10.521 -6.9305
ltibia 89.7212
lfoot 24.3014 -0.684625
ltoes 4.77665
305
root 15.7541 1.28885 1.08104 -797.649 -85.6747 -399.364
lowerback 41.6131 -3.45727 2.96716
upperback 17.5635 -5.92169 -2.79716
thorax -0.689839 -4.08931 -2.3801
lowerneck 9.57824 3.74427 -3.3329
upperneck 12.3679 4.52135 -2.94746
head 2.31223 1.82137 -0.426562
rclavicle 7.95139e-016 -9.70069e-014
rhumerus -22.0691 6.26384 -95.6947
rradius 19.6631
rwrist -6.6827
rhand -34.096 -357.074
rfingers 7.12502
rthumb -7.27223 -386.929
lclavicle 7.95139e-016 -9.70069e-014
lhumerus -735.612 17.884 -645.651
lradius 31.0328
lwrist -16.2219
lhand -21.3999 354.272
lfingers 7.12502
lthumb 4.98823 384.193
rfemur 357.385 -6.80862 374.808
rtibia 66.7131
rfoot 21.0588 -3.91093
rtoes 13.4409
lfemur -16.7587 9.68081 -7.04878
ltibia 89.1086
lfoot 23.9735 -0.908922
ltoes 4.33677
306
root 15.7677 1.28882 1.08574 -797.407 -85.6813 -400.052
lowerback 41.333 -3.48671 2.84285
upperback 17.3984 -5.97674 -2.78411
thorax -0.792072 -4.10728 -2.28578
lowerneck 9.52664 3.79514 -3.37129
upperneck 12.4594 4.59301 -2.94842
head 2.35095 1.85115 -0.419875
rclavicle 2.38542e-015 9.93923e-015
rhumerus -22.0496 6.07178 -95.8285
rradius 20.0387
rwrist -7.6684
rhand -33.5413 -357.446
rfingers 7.12502
rthumb -6.73681 -387.319
lclavicle 2.38542e-015 9.93923e-015
lhumerus -735.719 19.037 -645.839
lradius 29.4773
lwrist -19.8184
lhand -22.4203 353.582
lfingers 7.12502
lthumb 4.00287 383.524
rfemur 357.53 -6.48156 374.874
rtibia 67.3249
rfoot 20.8448 -3.81147
rtoes 13.0726
lfemur -16.1536 8.89339 -7.13993
ltibia 88.5813
lfoot 23.6428 -1.19095
ltoes 4.00444
307
root 15.7857 1.28971 1.09018 -797.151 -85.6752 -400.741
lowerback 41.0646 -3.52097 2.71965
upperback 17.2104 -6.03435 -2.7776
thorax -0.922687 -4.12407 -2.19563
lowerneck 9.52404 3.84733 -3.48267
upperneck 12.5007 4.65094 -2.86632
head 2.36052 1.87507 -0.375866
rclavicle -2.38542e-015 2.10712e-014
rhumerus -22.0851 6.12095 -96.0346
rradius 20.4659
rwrist -9.09702
rhand -33.117 -357.816
rfingers 7.12502
rthumb -6.32716 -387.702
lclavicle -2.38542e-015 2.10712e-014
lhumerus -735.964 20.1656 -646.053
lradius 28.1472
lwrist -23.2333
lhand -23.3124 353.105
lfingers 7.12502
lthumb 3.14138 383.062
rfemur 357.68 -6.17883 374.922
rtibia 67.9169
rfoot 20.6478 -3.71201
rtoes 12.622
lfemur -15.5854 8.13592 -7.23431
ltibia 88.1187
lfoot 23.3062 -1.51828
ltoes 3.75149
308
root 15.8064 1.29085 1.09406 -796.585 -85.6882 -401.715
lowerback 40.8006 -3.56485 2.62529
upperback 17.0048 -6.09014 -2.75418
thorax -1.07238 -4.13736 -2.10161
lowerneck 9.45574 3.88517 -3.56175
upperneck 12.594 4.70046 -2.822
head 2.40029 1.8931 -0.347526
rclavicle 3.97569e-014 -3.18055e-014
rhumerus -22.0811 6.2152 -96.2096
rradius 20.8639
rwrist -10.7242
rhand -32.6531 -358.214
rfingers 7.12502
rthumb -5.87932 -388.112
lclavicle 3.97569e-014 -3.18055e-014
lhumerus -736.277 21.2638 -646.276
lradius 26.9606
lwrist -26.3637
lhand -24.0548 352.82
lfingers 7.12502
lthumb 2.42443 382.786
rfemur 357.813 -5.92019 374.997
rtibia 68.5013
rfoot 20.4407 -3.59318
rtoes 12.1283
lfemur -15.0785 7.40497 -7.28973
ltibia 87.7388
lfoot 23.0025 -1.88337
ltoes 3.60087
309
root 15.8298 1.29248 1.09764 -796.337 -85.6835 -402.358
lowerback 40.5583 -3.59831 2.48985
upperback 16.7841 -6.14792 -2.72694
thorax -1.24075 -4.15383 -1.98006
lowerneck 9.38372 3.93032 -3.68598
upperneck 12.6513 4.75526 -2.7565
head 2.42695 1.91392 -0.305162
rclavicle -3.18055e-015 2.8625e-014
rhumerus -22.0867 6.44893 -96.3883
rradius 21.2664
rwrist -12.4353
rhand -32.3093 -358.534
rfingers 7.12502
rthumb -5.54738 -388.441
lclavicle -3.18055e-015 2.8625e-014
lhumerus -736.679 22.3406 -646.496
lradius 25.9618
lwrist -29.192
lhand -24.535 352.872
lfingers 7.12502
lthumb 1.96064 382.842
rfemur 357.942 -5.67805 375.026
rtibia 69.0719
rfoot 20.283 -3.45133
rtoes 11.6581
lfemur -14.5954 6.7083 -7.37302
ltibia 87.4183
lfoot 22.6891 -2.15912
ltoes 3.23814
310
root 15.8537 1.29378 1.10072 -795.872 -85.6987 -403.193
lowerback 40.3435 -3.65021 2.39788
upperback 16.5304 -6.20921 -2.70874
thorax -1.45663 -4.16631 -1.88451
lowerneck 9.28625 3.97319 -3.816
upperneck 12.7558 4.80651 -2.65396
head 2.47251 1.93158 -0.249219
rclavicle 4.45278e-014 3.4191e-014
rhumerus -22.1287 6.48897 -96.5256
rradius 21.7224
rwrist -13.9739
rhand -31.9637 -358.787
rfingers 7.12502
rthumb -5.21365 -388.703
lclavicle 4.45278e-014 3.4191e-014
lhumerus -737.162 23.2345 -646.729
lradius 25.1095
lwrist -31.5599
lhand -24.7787 353.104
lfingers 7.12502
lthumb 1.72531 383.077
rfemur 358.038 -5.46178 375.083
rtibia 69.6442
rfoot 20.112 -3.3569
rtoes 11.3033
lfemur -14.1706 6.06706 -7.40472
ltibia 87.1667
lfoot 22.4325 -2.49835
ltoes 2.76557
311
root 15.8757 1.29467 1.10367 -795.609 -85.6877 -403.789
lowerback 40.1251 -3.68445 2.26269
upperback 16.2644 -6.26265 -2.67808
thorax -1.6792 -4.17642 -1.75656
lowerneck 9.16341 4.01329 -3.96676
upperneck 12.8372 4.85482 -2.5474
head 2.51398 1.94823 -0.18807
rclavicle -3.73715e-014 -3.97569e-016
rhumerus -22.1907 6.5266 -96.5836
rradius 22.2184
rwrist -15.3025
rhand -31.5931 -358.88
rfingers 7.12502
rthumb -4.8558 -388.804
lclavicle -3.73715e-014 -3.97569e-016
lhumerus -737.714 23.9126 -646.917
lradius 24.4334
lwrist -33.4141
lhand -24.7864 353.655
lfingers 7.12502
lthumb 1.71788 383.627
rfemur 358.09 -5.27238 375.085
rtibia 70.2296
rfoot 19.9822 -3.22173
rtoes 11.1186
lfemur -13.8039 5.47327 -7.46131
ltibia 86.9766
lfoot 22.2029 -2.76701
ltoes 2.20357
312
root 15.8964 1.29504 1.10729 -795.25 -85.6986 -404.456
lowerback 39.9059 -3.72542 2.12749
upperback 15.9892 -6.32495 -2.63798
thorax -1.90946 -4.19093 -1.61521
lowerneck 9.05281 4.05425 -4.05546
upperneck 12.9168 4.9128 -2.5023
head 2.55605 1.97102 -0.156781
rclavicle -5.08889e-014 4.45278e-014
rhumerus -22.2461 6.34156 -96.564
rradius 22.6906
rwrist -16.0947
rhand -31.1662 -358.982
rfingers 7.12502
rthumb -4.4436 -388.916
lclavicle -5.08889e-014 4.45278e-014
lhumerus -738.327 24.5802 -647.106
lradius 23.8679
lwrist -34.9119
lhand -24.5534 354.252
lfingers 7.12502
lthumb 1.94287 384.223
rfemur 358.117 -5.13313 375.087
rtibia 70.8063
rfoot 19.9096 -3.08878
rtoes 11.1197
lfemur -13.4794 4.93016 -7.46978
ltibia 86.8438
lfoot 22.0521 -2.97966
ltoes 1.56198
